<svg width="512" height="512" viewBox="0 0 512 512" fill="none" xmlns="http://www.w3.org/2000/svg">
<g clip-path="url(#clip0_1403_78)">
<path d="M448.777 420.874C452.688 430.086 445.159 440.076 435.227 438.856L-0.269867 385.384C-10.2027 384.164 -15.0904 372.65 -9.06782 364.657L254.989 14.2424C261.011 6.25013 273.427 7.77463 277.338 16.9865L448.777 420.874Z" fill="#F4F4F4" fill-opacity="0.25"/>
<path d="M482.506 351.785C488.939 359.451 484.661 371.206 474.805 372.944L42.704 449.135C32.8487 450.873 24.8079 441.29 28.2306 431.886L178.298 19.5799C181.721 10.176 194.04 8.00378 200.472 15.6699L482.506 351.785Z" fill="#F4F4F4" fill-opacity="0.5"/>
<path d="M493.5 261.742C502.167 266.745 502.167 279.255 493.5 284.258L114 503.363C105.333 508.366 94.5 502.112 94.5 492.104L94.5 53.8956C94.5 43.8882 105.333 37.6335 114 42.6372L493.5 261.742Z" fill="#F4F4F4" fill-opacity="0.75"/>
</g>
<defs>
<clipPath id="clip0_1403_78">
<rect width="512" height="512" fill="white"/>
</clipPath>
</defs>
</svg>
